<svg xmlns="http://www.w3.org/2000/svg" aria-hidden="true" overflow="hidden" style="position:absolute;width:0;height:0">
  <defs>
    <symbol id="icon-facebook" viewBox="0 0 32 32">
      <path d="M23.987 2.128a37.26 37.26 0 0 0-4.049-.208c-4.484 0-7.271 2.856-7.271 7.454v3.121H8.9a.665.665 0 0 0-.666.667v5.133a.665.665 0 0 0 .666.666h3.767v10.293a.665.665 0 0 0 .667.666h5.304a.668.668 0 0 0 .667-.666V18.96h3.754a.667.667 0 0 0 .662-.581l.663-5.133c.012-.094.004-.189-.023-.28s-.074-.175-.137-.246-.14-.128-.226-.168a.667.667 0 0 0-.275-.06h-4.417V9.88c0-1.293.26-1.833 1.877-1.833h2.718a.668.668 0 0 0 .667-.666V2.788a.667.667 0 0 0-.581-.662zm-.754 4.587-2.053.001c-2.876 0-3.209 1.808-3.209 3.167v3.28a.665.665 0 0 0 .666.667h4.328l-.492 3.8h-3.835a.665.665 0 0 0-.666.666v10.291h-3.971V18.296a.665.665 0 0 0-.666-.666H9.569v-3.8h3.766a.665.665 0 0 0 .666-.667V9.374c0-3.832 2.22-6.12 5.938-6.12 1.345 0 2.56.073 3.296.137v3.324z"/>
    </symbol>
    <symbol id="icon-instagram" viewBox="0 0 32 32">
      <path d="M16 8.49a7.512 7.512 0 1 0 2.874 14.45A7.51 7.51 0 0 0 16 8.49zm0 13.061a5.555 5.555 0 0 1-5.444-6.634 5.557 5.557 0 0 1 7.568-4.045A5.55 5.55 0 0 1 21.551 16c-.004 1.471-.59 2.88-1.631 3.92s-2.45 1.626-3.92 1.631zM23.184 0H8.817A8.817 8.817 0 0 0 .001 8.816v14.367a8.817 8.817 0 0 0 8.816 8.816h14.367A8.817 8.817 0 0 0 32 23.183V8.816A8.817 8.817 0 0 0 23.184 0zm6.857 23.184c0 1.819-.723 3.562-2.008 4.849s-3.03 2.008-4.849 2.008H8.817a6.855 6.855 0 0 1-6.857-6.857V8.817A6.855 6.855 0 0 1 8.817 1.96h14.367c1.819 0 3.562.723 4.849 2.008s2.008 3.03 2.008 4.849v14.367zM26.122 7.51a1.637 1.637 0 0 1-1.008 1.508 1.628 1.628 0 0 1-1.779-.354 1.633 1.633 0 1 1 2.786-1.155z"/>
    </symbol>
    <symbol id="icon-advantages-left" viewBox="0 0 29 32">
      <path d="M14.389 0c-1.149 0-2.222.523-3.136 1.38s-1.697 2.05-2.35 3.495c-.137.303-.267.618-.392.942a19.252 19.252 0 0 0-1.014-.132 14.979 14.979 0 0 0-1.154-.072c-1.123-.027-2.149.087-3.048.36-1.199.363-2.189 1.031-2.763 2.026s-.658 2.186-.373 3.406c.285 1.22.927 2.495 1.852 3.783.194.27.402.541.621.812-.214.264-.421.535-.62.811C1.086 18.099.445 19.373.16 20.594S-.041 23.005.533 24c.574.995 1.564 1.663 2.763 2.026s2.624.445 4.202.287c.331-.033.669-.077 1.013-.131.122.318.253.633.393.944.652 1.445 1.435 2.639 2.35 3.495s1.987 1.38 3.136 1.38 2.222-.523 3.136-1.38 1.697-2.05 2.35-3.495c.14-.311.271-.626.393-.944.344.054.681.098 1.012.131 1.578.157 3.003.076 4.202-.287s2.189-1.031 2.763-2.026c.574-.995.658-2.185.373-3.406s-.927-2.495-1.852-3.783a18.092 18.092 0 0 0-.62-.811c.214-.265.422-.535.621-.812.925-1.288 1.567-2.563 1.852-3.783s.201-2.411-.373-3.406c-.574-.995-1.564-1.662-2.763-2.026-.899-.273-1.925-.386-3.048-.36-.374.009-.76.033-1.154.072-.331.033-.669.077-1.013.132a18.878 18.878 0 0 0-.392-.942c-.652-1.445-1.435-2.639-2.349-3.495S15.54 0 14.392 0zm0 1.278c.766 0 1.518.337 2.262 1.035s1.456 1.754 2.059 3.088c.098.218.191.438.279.659a27.137 27.137 0 0 0-4.601 1.493 27.091 27.091 0 0 0-4.6-1.492c.09-.226.183-.447.28-.66.602-1.334 1.314-2.391 2.059-3.089s1.496-1.035 2.263-1.035zM5.938 6.889a13.148 13.148 0 0 1 1.432.069c.233.023.471.053.713.088a27.164 27.164 0 0 0-1.008 4.731 27.106 27.106 0 0 0-3.594 3.239 17.167 17.167 0 0 1-.432-.573c-.854-1.189-1.414-2.333-1.645-3.327s-.148-1.813.235-2.476c.383-.664 1.051-1.146 2.027-1.442.641-.194 1.409-.299 2.272-.307zm16.901 0c.864.008 1.631.113 2.272.307.977.296 1.644.778 2.027 1.442s.468 1.482.235 2.476c-.232.994-.791 2.138-1.645 3.327-.14.194-.284.385-.432.573a27.08 27.08 0 0 0-3.592-3.238 27.164 27.164 0 0 0-1.008-4.731 15.7 15.7 0 0 1 .712-.088 13.3 13.3 0 0 1 1.432-.069zm-3.413.386c.34 1.056.621 2.22.831 3.467a35.19 35.19 0 0 0-4.249-2.454 24.737 24.737 0 0 1 3.418-1.013zm-10.074 0c1.084.233 2.233.572 3.417 1.013a34.555 34.555 0 0 0-4.248 2.453c.21-1.246.491-2.41.831-3.466zm5.037 1.672a32.846 32.846 0 0 1 6.107 3.526 32.888 32.888 0 0 1 .001 7.051c-.917.671-1.907 1.319-2.96 1.927s-2.108 1.141-3.148 1.6a32.856 32.856 0 0 1-6.106-3.526c-.123-1.13-.189-2.311-.189-3.526s.066-2.396.189-3.527c.917-.671 1.907-1.319 2.959-1.926s2.108-1.141 3.148-1.599zm.086 1.923-3.658 2.258 3.658 2.258 3.659-2.258-3.659-2.258zm-7.574 2.676a35.25 35.25 0 0 0 0 4.906 24.84 24.84 0 0 1-2.587-2.453A24.826 24.826 0 0 1 6.9 13.546zm14.976.001A24.826 24.826 0 0 1 24.463 16a24.716 24.716 0 0 1-2.586 2.452 34.586 34.586 0 0 0 0-4.905zm-11.885.574v4.458l3.842 2.371v-4.458l-3.842-2.371zm8.962.002-3.841 2.371v4.456l3.841-2.371v-4.456zM3.481 16.984a27.101 27.101 0 0 0 3.593 3.239 27.172 27.172 0 0 0 1.008 4.73 15.7 15.7 0 0 1-.712.088c-1.457.145-2.727.057-3.704-.239s-1.644-.779-2.027-1.442c-.383-.664-.467-1.483-.235-2.477s.791-2.138 1.645-3.327c.14-.194.284-.385.432-.572zm21.815 0c.151.191.295.382.432.572.854 1.189 1.413 2.333 1.645 3.327s.148 1.813-.235 2.477c-.383.664-1.05 1.146-2.027 1.442s-2.247.384-3.704.239a15.33 15.33 0 0 1-.711-.088c.45-1.431.793-3.024 1.008-4.731a27.144 27.144 0 0 0 3.592-3.237zm-5.039 4.273a24.826 24.826 0 0 1-.831 3.467 24.69 24.69 0 0 1-3.418-1.014 34.827 34.827 0 0 0 4.249-2.453zm-11.736.001a34.918 34.918 0 0 0 4.248 2.452c-1.184.441-2.333.78-3.417 1.013a24.777 24.777 0 0 1-.831-3.466zm5.906.058.046.029.046-.029h-.093zm-.039 3.129a27.11 27.11 0 0 0 4.602 1.492c-.088.222-.182.443-.28.661-.603 1.334-1.314 2.391-2.059 3.089s-1.496 1.035-2.262 1.035-1.518-.337-2.263-1.035-1.456-1.754-2.059-3.089a15.954 15.954 0 0 1-.28-.661 27.19 27.19 0 0 0 4.601-1.492z"/>
    </symbol>
    <symbol id="icon-logo" viewBox="0 0 64 32">
      <path d="M.595 0h5.216c1.23 0 2.175.093 2.836.278.674.172 1.15.456 1.428.853.278.383.416.925.416 1.626v1.587c0 .357-.145.694-.436 1.011a2.146 2.146 0 0 1-.992.654v.099c.502.053.959.271 1.368.654.423.37.635.787.635 1.249v1.983c0 1.045-.416 1.785-1.249 2.221s-2.122.654-3.867.654H.595V-.002zm5.216 5.236c.489 0 .853-.04 1.091-.119s.397-.205.476-.377c.093-.185.139-.45.139-.793v-.635c0-.304-.04-.529-.119-.674-.079-.159-.245-.271-.496-.337-.238-.066-.621-.099-1.15-.099H3.689v3.034h2.122zm.079 5.434c.754 0 1.289-.086 1.606-.258s.476-.45.476-.833V8.548c0-.476-.126-.813-.377-1.011-.238-.198-.668-.297-1.289-.297H3.688v3.431h2.201zm11.994 2.399c-3.398 0-5.097-1.038-5.097-3.114V6.504c0-1.203.383-2.076 1.15-2.618.78-.542 1.977-.813 3.59-.813 1.52 0 2.631.264 3.332.793.714.516 1.071 1.395 1.071 2.638v2.34h-6.227v.873c0 .555.198.952.595 1.19s1.111.357 2.142.357c.952 0 2.023-.139 3.213-.416v1.844a18.042 18.042 0 0 1-3.768.377zm1.289-5.87V5.811a.78.78 0 0 0-.397-.714c-.251-.159-.681-.238-1.289-.238-.701 0-1.17.079-1.408.238a.82.82 0 0 0-.377.714v1.388h3.471zm7.687 5.87c-.899 0-1.573-.079-2.023-.238a1.63 1.63 0 0 1-.932-.892c-.172-.436-.258-1.084-.258-1.944 0-.767.093-1.368.278-1.805.198-.436.509-.747.932-.932.436-.198 1.031-.297 1.785-.297h3.252v-.654c0-.41-.059-.714-.178-.912-.106-.198-.311-.337-.615-.416-.291-.079-.734-.119-1.329-.119-.82 0-1.944.079-3.371.238V3.273c1.045-.132 2.268-.198 3.669-.198 1.23 0 2.175.093 2.836.278.674.185 1.157.502 1.448.952s.436 1.104.436 1.963v6.604h-2.836v-.873a1.877 1.877 0 0 1-.912.813c-.383.172-1.111.258-2.182.258zm1.13-1.804c.582 0 .998-.02 1.249-.059.185-.026.311-.066.377-.119a.587.587 0 0 0 .198-.258c.053-.093.079-.231.079-.416V8.549H27.91c-.449 0-.767.033-.952.099a.54.54 0 0 0-.377.357c-.066.172-.099.483-.099.932 0 .436.033.74.099.912s.192.284.377.337c.198.053.542.079 1.031.079zm10.679 1.804c-1.23 0-2.096-.218-2.598-.654-.489-.45-.734-1.15-.734-2.102v-7.04h2.895v6.644c0 .37.033.648.099.833a.727.727 0 0 0 .436.397c.225.079.562.119 1.011.119.569 0 .985-.033 1.249-.099.264-.079.443-.212.535-.397s.139-.469.139-.853V3.273h2.895v9.599H41.74v-1.17c-.212.912-1.236 1.368-3.074 1.368zm13.262 0c-.489 0-.899-.02-1.23-.059s-.661-.119-.992-.238a2.502 2.502 0 0 1-.912-.496c-.225-.212-.41-.502-.555-.873-.159-.383-.238-.826-.238-1.329V5.056H46.06V3.271h1.944V.495h2.895v2.776h2.638v1.785h-2.638v4.522c0 .463.04.813.119 1.051a.84.84 0 0 0 .456.496c.225.093.568.139 1.031.139.185 0 .529-.033 1.031-.099v1.805c-.621.066-1.157.099-1.606.099zm5.994-.277-3.828-9.519h3.153l2.162 6.783 1.963-6.783h2.995l-5.255 13.724H56.18l1.745-4.204zM0 29.918l6.703-8.786H.198v-2.201h10.313v1.864l-6.703 8.786h6.822v2.221H0v-1.884zM17.22 32c-.595 0-1.084-.02-1.468-.059s-.793-.119-1.23-.238c-.476-.132-.859-.317-1.15-.555-.291-.251-.535-.602-.734-1.051-.198-.436-.297-.965-.297-1.587v-2.836c0-.635.099-1.19.297-1.666s.456-.846.773-1.111c.278-.225.641-.41 1.091-.555a5.715 5.715 0 0 1 1.349-.297c.502-.026.959-.04 1.368-.04.608 0 1.091.02 1.448.059.37.026.773.106 1.21.238.476.145.859.344 1.15.595.304.251.562.608.773 1.071.198.476.297 1.045.297 1.706v2.836c0 .595-.099 1.117-.297 1.567-.185.45-.43.8-.734 1.051-.264.225-.628.41-1.091.555a6.955 6.955 0 0 1-1.329.258c-.397.04-.873.059-1.428.059zm0-1.805c.542 0 .952-.04 1.23-.119.278-.093.469-.231.575-.416.119-.185.178-.456.178-.813v-3.629c0-.529-.139-.899-.416-1.111s-.8-.317-1.567-.317c-.767 0-1.289.106-1.567.317s-.416.582-.416 1.111v3.629c0 .357.053.628.159.813.119.185.317.324.595.416.278.079.688.119 1.23.119zm7.136-7.992h2.856v1.17c.225-.912 1.249-1.368 3.074-1.368 1.23 0 2.089.225 2.578.674.502.436.754 1.13.754 2.082v7.04h-2.895v-6.664c0-.37-.04-.648-.119-.833-.066-.185-.212-.317-.436-.397-.212-.079-.542-.119-.992-.119-.569 0-.985.04-1.249.119-.265.066-.443.192-.535.377s-.139.469-.139.853v6.664h-2.895v-9.599zM40.97 32c-3.398 0-5.097-1.038-5.097-3.114v-3.451c0-1.203.383-2.076 1.15-2.618.78-.542 1.977-.813 3.59-.813 1.52 0 2.631.264 3.332.793.714.516 1.071 1.395 1.071 2.638v2.34h-6.227v.873c0 .555.198.952.595 1.19s1.111.357 2.142.357c.952 0 2.023-.139 3.213-.416v1.844a18.042 18.042 0 0 1-3.768.377zm1.289-5.87v-1.388a.78.78 0 0 0-.397-.714c-.251-.159-.681-.238-1.289-.238-.701 0-1.17.079-1.408.238a.82.82 0 0 0-.377.714v1.388h3.471z"/>
    </symbol>
    <symbol id="icon-advantages-middle" viewBox="0 0 41 32">
      <path d="M13.381 10.378H.704a.69.69 0 0 0-.704.676v4.054a.69.69 0 0 0 .704.676h.705v15.541a.69.69 0 0 0 .704.676h9.859c.39 0 .705-.302.705-.676V15.784h.704a.69.69 0 0 0 .704-.676v-4.054a.69.69 0 0 0-.704-.676zM5.634 23.216v-1.351h4.225v-1.351H5.634v-1.351h5.634v8.784H5.634v-3.378h1.409v-1.352H5.634zm5.634-5.405H4.93c-.39 0-.705.302-.705.676v10.135c0 .373.315.676.705.676h6.338v1.351H2.817V15.784h8.451v2.027zm1.409-3.379H1.409v-2.703h11.268v2.703zm10.034-3.927v-4.94a.7.7 0 0 0-.704-.696h-.705V1.391h1.409V0h-7.747v1.391h4.93v3.478h-.704a.7.7 0 0 0-.704.696v4.94c-1.605.323-2.817 1.728-2.817 3.408v17.391a.7.7 0 0 0 .704.696h8.451c.39 0 .704-.311.704-.696V13.913c0-1.679-1.212-3.085-2.817-3.408zm-2.816-4.244h1.408v4.174h-1.408V6.261zm-.705 5.565h2.817c1.165 0 2.113.937 2.113 2.087v.696h-7.043v-.696c0-1.15.948-2.087 2.113-2.087zm4.93 16h-7.043v-1.391h2.817v-1.391h-2.817V16h7.043v11.826zm-7.042 2.783v-1.391h7.043v1.391h-7.043zM40.714 9.514H28.83a.67.67 0 0 0-.66.681v21.124a.67.67 0 0 0 .66.681h11.884a.67.67 0 0 0 .66-.681V10.195a.67.67 0 0 0-.66-.681zm-.661 21.123H29.49V10.876h10.563v19.761z"/>
      <path d="M8.803 23.351h1.761v.865H8.803v-.865zm12.324 1.73h1.761v1.73h-1.761v-1.73zm-.44-1.73c1.699 0 3.081-1.358 3.081-3.027s-1.382-3.027-3.081-3.027-3.081 1.358-3.081 3.027 1.382 3.027 3.081 3.027zm0-4.54c.849 0 1.54.679 1.54 1.513s-.691 1.514-1.54 1.514c-.85 0-1.541-.679-1.541-1.514s.691-1.513 1.541-1.513zm12.434-2.378h3.301c1.274 0 2.311-.97 2.311-2.162s-1.037-2.162-2.311-2.162h-3.301c-1.274 0-2.311.97-2.311 2.162s1.037 2.162 2.311 2.162zm4.292-2.163c0 .511-.444.927-.99.927h-.99v-1.853h.99c.546 0 .99.416.99.926zm-4.292-.926h.99v1.853h-.99c-.546 0-.99-.416-.99-.927s.444-.926.99-.926zm0 10.008h3.301c1.274 0 2.311-1.164 2.311-2.595s-1.037-2.595-2.311-2.595h-3.301c-1.274 0-2.311 1.164-2.311 2.595s1.037 2.595 2.311 2.595zm4.292-2.595c0 .613-.444 1.112-.99 1.112h-.99v-2.224h.99c.546 0 .99.499.99 1.112zm-4.292-1.112h.99v2.224h-.99c-.546 0-.99-.499-.99-1.112s.444-1.112.99-1.112zm0 9.761h3.301c1.274 0 2.311-1.164 2.311-2.595s-1.037-2.595-2.311-2.595h-3.301c-1.274 0-2.311 1.164-2.311 2.595s1.037 2.595 2.311 2.595zm4.292-2.595c0 .613-.444 1.112-.99 1.112h-.99v-2.224h.99c.546 0 .99.499.99 1.112zm-4.292-1.112h.99v2.224h-.99c-.546 0-.99-.499-.99-1.112s.444-1.112.99-1.112z"/>
    </symbol>
    <symbol id="icon-phone" viewBox="0 0 28 32">
      <path d="m26.353 23.35-.183-.228c-1.449-1.831-2.659-2.784-3.698-2.91-.898-.123-1.767.499-2.69 1.137l-.987.617a2.193 2.193 0 0 1-.345.14c-.577.163-2.034.259-2.859-.496-.96-.878-2.449-2.486-3.607-3.891-1.107-1.454-2.323-3.267-2.958-4.409-.536-.967-.087-2.32.213-2.821.059-.098.137-.195.222-.291l.87-.804c.012-.013.018-.028.029-.04.009-.008.023-.006.032-.012.786-.663 1.598-1.346 1.709-2.223.131-1.03-.51-2.424-1.961-4.254l-.177-.228C9.065 1.485 7.707-.256 5.755.031 4.988.145 4.302.407 3.596.85c-.007.005-.011.013-.017.017s-.013.004-.019.008l-.984.729c-.01.006-.015.018-.025.027-.007.007-.018.008-.027.015-.114.096-.228.194-.341.295-.998.89-3.159 3.473-1.685 8.251.952 3.085 2.914 6.686 5.688 10.433l-.026.023 1.53 1.906.012-.01c3.009 3.559 6.07 6.309 8.875 7.975 1.872 1.112 3.508 1.48 4.854 1.48 1.771 0 3.039-.637 3.675-1.051l.4-.267c.045-.031.077-.075.11-.114l.871-.656c.01-.008.016-.02.025-.028.004-.004.011-.003.017-.007.62-.566 1.048-1.159 1.347-1.861.773-1.801-.611-3.525-1.526-4.666zm.491 4.224c-.232.546-.571 1.011-1.061 1.461l-1.296.975c-1.174.763-3.684 1.706-7.329-.459-2.805-1.665-5.894-4.481-8.933-8.142l-.822-1.039c-2.862-3.795-4.875-7.429-5.825-10.51-1.235-4.004.321-6.153 1.362-7.08.106-.096.211-.185.316-.273l.004-.004.944-.7c.574-.363 1.107-.566 1.719-.659C7.231.947 8.295 2.327 9.076 3.329l.183.232c1.622 2.045 1.778 3.018 1.727 3.415-.057.441-.726 1.005-1.318 1.502l-.083.07-.007.01-.013.007-.9.832c-.006.006-.008.013-.014.02s-.017.01-.023.017a3.155 3.155 0 0 0-.356.474c-.506.846-.983 2.595-.23 3.947.658 1.183 1.909 3.05 3.059 4.56 1.202 1.458 2.735 3.114 3.729 4.021.744.68 1.781.908 2.677.908.48 0 .921-.066 1.254-.16.176-.05.358-.124.545-.215.011-.006.017-.015.028-.022.006-.003.014-.002.02-.006l1.044-.653c.034-.023.056-.052.084-.08l.013.014c.643-.446 1.376-.97 1.835-.894.407.049 1.331.441 2.955 2.492l.187.235c.791.987 1.875 2.338 1.37 3.519z"/>
    </symbol>
    <symbol id="icon-advantages-right" viewBox="0 0 38 32">
      <path d="M37.52 7.485c-.339-.307-.748-.504-1.183-.569s-.877.004-1.278.201l-8.456 4.126a.286.286 0 0 1-.246.027.315.315 0 0 1-.111-.066.355.355 0 0 1-.079-.108l-4.939-9.762c-.2-.403-.495-.74-.855-.975s-.77-.358-1.187-.358c-.418 0-.829.124-1.188.358s-.655.571-.855.975l-4.94 9.762a.355.355 0 0 1-.079.108.3.3 0 0 1-.357.039L3.311 7.117c-.399-.199-.842-.271-1.276-.208s-.845.26-1.183.567c-.338.307-.592.712-.731 1.17s-.16.949-.058 1.418l4.27 19.947c.072.337.206.654.393.933s.424.513.696.688c.358.241.769.368 1.189.368.215-.002.429-.033.636-.092a40.932 40.932 0 0 1 23.86-.018c.305.097.624.125.939.082s.618-.156.892-.331c.274-.176.512-.411.702-.691s.324-.599.398-.938l4.253-19.947c.106-.466.09-.956-.046-1.412s-.388-.861-.724-1.167zm-1.172 2.063-4.27 19.947a.426.426 0 0 1-.151.24.39.39 0 0 1-.268.037 42.745 42.745 0 0 0-24.949 0 .313.313 0 0 1-.264-.038.356.356 0 0 1-.155-.238L2.021 9.549a.422.422 0 0 1 .07-.315c.032-.044.072-.08.117-.105s.096-.039.147-.04l.134.037 8.472 4.144c.535.265 1.14.298 1.695.093s1.021-.633 1.302-1.198l4.939-9.762a.337.337 0 0 1 .117-.141.297.297 0 0 1 .334 0c.05.034.091.083.117.141l4.94 9.762c.282.565.746.993 1.302 1.198s1.161.172 1.695-.093l8.472-4.144a.314.314 0 0 1 .352.055c.049.043.086.1.106.166s.024.135.011.203zM25.549 23.546c-.029.272-.147.523-.331.706s-.425.286-.673.288h-.101a47.762 47.762 0 0 0-10.515 0c-.264.031-.528-.054-.736-.237s-.34-.448-.369-.739c-.024-.292.058-.584.227-.811s.412-.373.677-.405a47.007 47.007 0 0 1 10.917 0c.262.032.503.175.671.399s.252.509.233.799z"/>
    </symbol>
    <symbol id="icon-arrow" viewBox="0 0 43 32">
      <path d="M5.809 16l11.889-11.889c0.951-0.951 0.951-2.446 0-3.397s-2.445-0.951-3.397 0l-13.589 13.588c-0.951 0.951-0.951 2.445 0 3.397l13.589 13.588c0.951 0.951 2.445 0.951 3.397 0s0.951-2.446 0-3.397l-11.889-11.889z"></path>
      <path d="M8.211 13.598l9.487-9.487c0.951-0.951 0.951-2.446 0-3.397s-2.445-0.951-3.397 0l-13.589 13.588c-0.951 0.951-0.951 2.445 0 3.397l13.589 13.588c0.951 0.951 2.445 0.951 3.397 0s0.951-2.446 0-3.397l-9.487-9.487h34.463v-4.804h-34.463z"></path>
    </symbol>
  </defs>
</svg>
