<svg width="32.156250" height="32.156250" viewBox="0 0 32.1562 32.1562" fill="none" xmlns="http://www.w3.org/2000/svg" xmlns:xlink="http://www.w3.org/1999/xlink">
	<desc>
			Created with Pixso.
	</desc>
	<defs/>
	<path id="Vector" d="M16.0781 8.53125C14.5854 8.53125 13.1265 8.97388 11.8853 9.8031C10.644 10.6324 9.67676 11.811 9.10596 13.1901C8.53467 14.5691 8.38525 16.0865 8.67627 17.5504C8.96729 19.0144 9.68604 20.3591 10.7417 21.4146C11.7974 22.47 13.1421 23.1888 14.606 23.48C16.0698 23.7712 17.5874 23.6217 18.9663 23.0505C20.3452 22.4794 21.5239 21.512 22.353 20.271C23.1826 19.0299 23.625 17.5708 23.625 16.0781C23.625 14.0765 22.8301 12.157 21.4146 10.7417C19.999 9.32642 18.0796 8.53125 16.0781 8.53125ZM16.0781 21.6562C14.9751 21.6562 13.8965 21.3291 12.979 20.7162C12.0615 20.1033 11.3467 19.2321 10.9248 18.2128C10.5024 17.1935 10.3921 16.0719 10.6074 14.9899C10.8223 13.9078 11.3535 12.9139 12.1338 12.1338C12.9141 11.3536 13.9077 10.8224 14.9897 10.6072C16.0718 10.392 17.1934 10.5024 18.2129 10.9246C19.2319 11.3468 20.103 12.0618 20.7163 12.9791C21.3291 13.8964 21.6562 14.9749 21.6562 16.0781C21.6519 17.5562 21.063 18.9725 20.0176 20.0177C18.9727 21.0629 17.5562 21.652 16.0781 21.6562ZM23.2969 0L8.85938 0C6.50977 0 4.25635 0.93335 2.59473 2.59485C0.933594 4.25635 0 6.50977 0 8.85938L0 23.2969C0 25.6465 0.933594 27.8999 2.59473 29.5614C4.25635 31.2229 6.50977 32.1562 8.85938 32.1562L23.2969 32.1562C25.6465 32.1562 27.8999 31.2229 29.5615 29.5614C31.2227 27.8999 32.1562 25.6465 32.1562 23.2969L32.1562 8.85938C32.1562 6.50977 31.2227 4.25635 29.5615 2.59485C27.8999 0.93335 25.6465 0 23.2969 0ZM30.1875 23.2969C30.1875 25.1244 29.4614 26.8771 28.1694 28.1693C26.877 29.4615 25.1245 30.1875 23.2969 30.1875L8.85938 30.1875C7.03174 30.1875 5.2793 29.4615 3.98682 28.1693C2.69482 26.8771 1.96875 25.1244 1.96875 23.2969L1.96875 8.85938C1.96875 7.03186 2.69482 5.27917 3.98682 3.98694C5.2793 2.6947 7.03174 1.96875 8.85938 1.96875L23.2969 1.96875C25.1245 1.96875 26.877 2.6947 28.1694 3.98694C29.4614 5.27917 30.1875 7.03186 30.1875 8.85938L30.1875 23.2969ZM26.25 7.54688C26.25 7.87134 26.1538 8.1886 25.9736 8.45837C25.7935 8.72815 25.5371 8.93848 25.2373 9.06262C24.9375 9.18677 24.6074 9.21924 24.2891 9.15601C23.9712 9.09265 23.6787 8.9364 23.4492 8.70703C23.2197 8.47754 23.0635 8.18518 23.0005 7.86694C22.937 7.54871 22.9692 7.21887 23.0938 6.91907C23.2178 6.61926 23.4282 6.36304 23.6978 6.18274C23.9678 6.00244 24.2847 5.90625 24.6094 5.90625C25.0444 5.90625 25.4619 6.0791 25.7695 6.38672C26.0771 6.69446 26.25 7.11169 26.25 7.54688Z" fill="#FFFFFF" fill-opacity="1.000000" fill-rule="nonzero"/>
</svg>
