<svg width="24.500000" height="24.500000" viewBox="0 0 24.5 24.5" fill="none" xmlns="http://www.w3.org/2000/svg" xmlns:xlink="http://www.w3.org/1999/xlink">
	<desc>
			Created with Pixso.
	</desc>
	<defs/>
	<path id="Vector" d="M12.25 6.5C11.1128 6.5 10.001 6.8374 9.05566 7.46924C8.10986 8.10107 7.37305 8.99902 6.9375 10.0498C6.50244 11.1001 6.38867 12.2563 6.61035 13.3716C6.83252 14.4873 7.37988 15.5117 8.18408 16.3159C8.98828 17.1201 10.0127 17.6675 11.1284 17.8896C12.2437 18.1113 13.3999 17.9976 14.4502 17.5625C15.501 17.127 16.3989 16.3901 17.0308 15.4443C17.6626 14.499 18 13.3872 18 12.25C18 10.7251 17.394 9.2627 16.3159 8.18408C15.2373 7.10596 13.7749 6.5 12.25 6.5ZM12.25 16.5C11.4097 16.5 10.5879 16.251 9.88867 15.7837C9.18994 15.3169 8.64502 14.6528 8.32373 13.8765C8.00195 13.0996 7.91748 12.2451 8.08154 11.4209C8.24561 10.5967 8.65039 9.83936 9.24463 9.24463C9.83936 8.65039 10.5967 8.24561 11.4209 8.08154C12.2451 7.91748 13.0996 8.00195 13.8765 8.32373C14.6528 8.64502 15.3169 9.18994 15.7837 9.88867C16.251 10.5879 16.5 11.4097 16.5 12.25C16.4966 13.376 16.0479 14.4551 15.2515 15.2515C14.4551 16.0479 13.376 16.4966 12.25 16.5ZM17.75 0L6.75 0C4.95996 0 3.24268 0.710938 1.97705 1.97705C0.710938 3.24268 0 4.95996 0 6.75L0 17.75C0 19.54 0.710938 21.2573 1.97705 22.5229C3.24268 23.7891 4.95996 24.5 6.75 24.5L17.75 24.5C19.54 24.5 21.2573 23.7891 22.5229 22.5229C23.7891 21.2573 24.5 19.54 24.5 17.75L24.5 6.75C24.5 4.95996 23.7891 3.24268 22.5229 1.97705C21.2573 0.710938 19.54 0 17.75 0ZM23 17.75C23 19.1426 22.4468 20.4775 21.4624 21.4624C20.4775 22.4468 19.1426 23 17.75 23L6.75 23C5.35742 23 4.02246 22.4468 3.0376 21.4624C2.05322 20.4775 1.5 19.1426 1.5 17.75L1.5 6.75C1.5 5.35742 2.05322 4.02246 3.0376 3.0376C4.02246 2.05322 5.35742 1.5 6.75 1.5L17.75 1.5C19.1426 1.5 20.4775 2.05322 21.4624 3.0376C22.4468 4.02246 23 5.35742 23 6.75L23 17.75ZM20 5.75C20 5.99707 19.9268 6.23877 19.7896 6.44434C19.6519 6.6499 19.4565 6.81006 19.2285 6.90479C19 6.99951 18.7485 7.02441 18.5063 6.97607C18.2637 6.92773 18.041 6.80859 17.8662 6.63379C17.6914 6.45898 17.5723 6.23633 17.5239 5.99365C17.4756 5.75146 17.5005 5.5 17.5952 5.27148C17.6899 5.04346 17.8501 4.84814 18.0557 4.71045C18.2612 4.57324 18.5029 4.5 18.75 4.5C19.0815 4.5 19.3994 4.63184 19.6338 4.86621C19.8682 5.10059 20 5.41846 20 5.75Z" fill="#011C44" fill-opacity="1.000000" fill-rule="nonzero"/>
</svg>
