<svg width="39.453613" height="43.872314" viewBox="0 0 39.4536 43.8723" fill="none" xmlns="http://www.w3.org/2000/svg" xmlns:xlink="http://www.w3.org/1999/xlink">
	<desc>
			Created with Pixso.
	</desc>
	<defs/>
	<path id="Vector" d="M19.7275 0C18.1523 0 16.6816 0.717285 15.4277 1.8916C14.1738 3.06641 13.1006 4.70239 12.2061 6.68384C12.0186 7.09912 11.8394 7.53052 11.6685 7.97559C11.2065 7.90234 10.7432 7.84204 10.2778 7.79492C9.7373 7.74097 9.20947 7.70752 8.69629 7.69556C7.15723 7.65894 5.75 7.81519 4.51709 8.18896C2.87305 8.68726 1.5166 9.60303 0.729004 10.9668C-0.0585938 12.3308 -0.172852 13.9634 0.217285 15.6365C0.60791 17.3093 1.48779 19.0566 2.75684 20.8225C3.02295 21.1929 3.30762 21.5642 3.60791 21.9355C3.31396 22.2981 3.03076 22.6689 2.75781 23.0474C1.48877 24.813 0.608887 26.5603 0.21875 28.2334C-0.171875 29.9065 -0.0571289 31.5391 0.72998 32.9028C1.51758 34.2668 2.87402 35.1824 4.51807 35.6807C6.16211 36.1792 8.11572 36.2908 10.2793 36.0747C10.7329 36.0293 11.1963 35.9688 11.6675 35.8945C11.835 36.3308 12.0142 36.7622 12.2061 37.1885C13.1006 39.1702 14.1738 40.8059 15.4277 41.9805C16.6812 43.155 18.1523 43.8723 19.7275 43.8723C21.3022 43.8723 22.7734 43.155 24.0269 41.9805C25.2808 40.8059 26.354 39.1702 27.2485 37.1885C27.4404 36.7622 27.6201 36.3308 27.7871 35.8945C28.2583 35.9688 28.7212 36.0293 29.1743 36.0747C31.3379 36.2905 33.291 36.1792 34.9351 35.6807C36.5791 35.1824 37.936 34.2668 38.7236 32.9028C39.5107 31.5388 39.6255 29.9065 39.2349 28.2334C38.8447 26.5605 37.9644 24.813 36.6958 23.0474C36.4229 22.6689 36.1392 22.2981 35.8457 21.9355C36.1396 21.5728 36.4238 21.2014 36.6968 20.8225C37.9653 19.0569 38.8457 17.3093 39.2358 15.6365C39.6265 13.9634 39.5117 12.3308 38.7241 10.9668C37.937 9.60303 36.5801 8.6875 34.936 8.18896C33.7031 7.81519 32.2964 7.65918 30.7573 7.69556C30.2441 7.70752 29.7158 7.74097 29.1753 7.79492C28.7212 7.84033 28.2578 7.90112 27.7861 7.97534C27.6191 7.54004 27.4395 7.10938 27.248 6.68384C26.3535 4.70215 25.2803 3.06616 24.0269 1.8916C22.7729 0.717041 21.3018 0 19.7271 0L19.7275 0ZM19.7275 1.75195C20.7778 1.75195 21.8081 2.21362 22.8291 3.17041C23.8506 4.1272 24.8257 5.57544 25.6519 7.40479C25.7861 7.70337 25.9136 8.00464 26.0347 8.30884C24.0269 8.75537 21.9004 9.44019 19.7271 10.3555C17.5537 9.44043 15.4272 8.75562 13.4199 8.30933C13.5439 7.99902 13.6714 7.69653 13.8032 7.40479C14.6289 5.5752 15.6045 4.12695 16.6255 3.17017C17.647 2.21338 18.6768 1.75171 19.7275 1.75171L19.7275 1.75195ZM8.14062 9.44482C8.31006 9.44312 8.48193 9.44434 8.65625 9.44824C9.12109 9.4585 9.60498 9.48853 10.104 9.53857C10.4233 9.57031 10.7495 9.61108 11.0815 9.65918C10.4639 11.6211 9.99365 13.8052 9.69922 16.1448C7.81982 17.5698 6.16309 19.0693 4.77246 20.5852C4.56934 20.3279 4.37158 20.0659 4.17969 19.7998C3.0083 18.1697 2.2417 16.6011 1.92383 15.238C1.60547 13.875 1.72119 12.7524 2.24609 11.8428C2.77148 10.9329 3.68652 10.2717 5.02539 9.86572C5.9043 9.59912 6.95654 9.45557 8.14062 9.44482L8.14062 9.44482ZM31.313 9.44482C32.4971 9.45557 33.5493 9.59937 34.4282 9.86572C35.7676 10.2717 36.6821 10.9329 37.207 11.8428C37.7324 12.7524 37.8481 13.8752 37.5298 15.238C37.2119 16.6008 36.4453 18.1697 35.2739 19.7998C35.082 20.0659 34.8843 20.3279 34.6812 20.5854C33.291 19.0696 31.6348 17.5706 29.7559 16.1458C29.4614 13.8057 28.9907 11.6213 28.3735 9.65918C28.7046 9.61108 29.0303 9.57007 29.3496 9.53857C29.8311 9.48975 30.314 9.45947 30.7974 9.44824C30.9692 9.44434 31.1411 9.44312 31.313 9.44458L31.313 9.44482ZM26.6328 9.97363C27.0986 11.4209 27.4844 13.0178 27.7725 14.7268C26.8423 14.0984 25.8901 13.5032 24.918 12.9421C23.9468 12.3811 22.9556 11.8542 21.9473 11.363C23.5708 10.7581 25.1465 10.2937 26.6328 9.97388L26.6328 9.97363ZM12.8218 9.97388C14.3076 10.2939 15.8833 10.7583 17.5063 11.3633C16.498 11.8545 15.5068 12.3811 14.5356 12.9421C13.564 13.5029 12.6123 14.0979 11.6826 14.7256C11.9702 13.0173 12.356 11.4209 12.8218 9.97388ZM19.7271 12.2671C21.1523 12.896 22.5996 13.6267 24.042 14.4597C25.4854 15.293 26.8423 16.1809 28.1001 17.1016C28.2686 18.6509 28.3589 20.27 28.3589 21.9363C28.3589 23.6013 28.2686 25.22 28.1006 26.7686C26.8428 27.689 25.4858 28.5769 24.043 29.4099C22.6006 30.2429 21.1528 30.9741 19.7271 31.603C18.3008 30.9741 16.8535 30.2429 15.4106 29.4099C13.9683 28.5771 12.6118 27.6897 11.3545 26.7695C11.186 25.2205 11.0957 23.6018 11.0957 21.936C11.0957 20.2698 11.186 18.6504 11.3545 17.1008C12.6123 16.1804 13.9688 15.2925 15.4116 14.4597C16.854 13.627 18.3013 12.896 19.7271 12.2671L19.7271 12.2671ZM19.8452 14.9028L14.8296 17.9983L19.8452 21.0938L24.8613 17.9983L19.8452 14.9028L19.8452 14.9028ZM9.46143 18.5718C9.38281 19.6914 9.34326 20.8135 9.34375 21.9358C9.34375 23.0796 9.38428 24.2021 9.46191 25.2981C8.12598 24.1948 6.93555 23.0623 5.91553 21.9351C6.93555 20.8081 8.12549 19.6753 9.46143 18.5718ZM29.9932 18.5725C31.3286 19.676 32.5181 20.8083 33.5381 21.9351C32.5181 23.062 31.3286 24.1943 29.9932 25.2974C30.0723 24.1787 30.1113 23.0576 30.1108 21.936C30.1108 20.792 30.0708 19.6692 29.9932 18.5725L29.9932 18.5725ZM13.6997 19.3596L13.6997 25.4719L18.9673 28.7229L18.9673 22.6108L13.6997 19.3596ZM25.9863 19.3628L20.7197 22.613L20.7197 28.7222L25.9863 25.4719L25.9863 19.3628L25.9863 19.3628ZM4.77246 23.2852C6.16309 24.8013 7.81934 26.3003 9.69873 27.7253C9.99316 30.0647 10.4634 32.2485 11.0806 34.2104C10.75 34.2583 10.4238 34.2991 10.105 34.3311C8.10791 34.5305 6.36572 34.4099 5.02637 34.0039C3.68701 33.5979 2.77295 32.9365 2.24756 32.0266C1.72217 31.1169 1.60693 29.9941 1.9248 28.6313C2.24268 27.2686 3.00928 25.6997 4.18066 24.0696C4.37207 23.804 4.56934 23.5422 4.77246 23.2852ZM34.6812 23.2856C34.8877 23.5481 35.0859 23.8096 35.2729 24.0696C36.4443 25.6995 37.2104 27.2683 37.5288 28.6313C37.8467 29.9941 37.7314 31.1167 37.2061 32.0266C36.6807 32.9363 35.7661 33.5979 34.4268 34.0037C33.0879 34.4097 31.3457 34.5303 29.3486 34.3311C29.0229 34.2979 28.6978 34.2578 28.374 34.2104C28.9912 32.248 29.4614 30.064 29.7559 27.7239C31.6348 26.2993 33.291 24.8005 34.6812 23.2854L34.6812 23.2856ZM27.7729 29.1433C27.4849 30.8521 27.0991 32.449 26.6333 33.8962C25.147 33.5762 23.5713 33.1116 21.9473 32.5066C22.9561 32.0151 23.9478 31.4883 24.9194 30.927C25.8911 30.3662 26.8433 29.7712 27.7729 29.1433L27.7729 29.1433ZM11.6821 29.1443C12.6113 29.772 13.563 30.3665 14.5342 30.927C15.5059 31.4883 16.4976 32.0151 17.5063 32.5066C15.8828 33.1116 14.3076 33.5759 12.8213 33.896C12.3555 32.449 11.9697 30.8525 11.6821 29.1443ZM19.7793 29.2239L19.8428 29.2634L19.9062 29.2239L19.7793 29.2239L19.7793 29.2239ZM19.7266 33.5146C21.9009 34.4297 24.0273 35.1145 26.0356 35.5608C25.9146 35.8657 25.7861 36.168 25.6519 36.4673C24.8257 38.2966 23.8506 39.7449 22.8291 40.7017C21.8081 41.6584 20.7778 42.1201 19.7275 42.1201C18.6768 42.1201 17.647 41.6584 16.6255 40.7017C15.6045 39.7449 14.6289 38.2966 13.8032 36.4673C13.6685 36.168 13.5405 35.8657 13.4189 35.5608C15.4268 35.1143 17.5532 34.4294 19.7271 33.5146L19.7266 33.5146Z" fill="#2B7FFF" fill-opacity="1.000000" fill-rule="nonzero"/>
</svg>
