<svg width="43.384766" height="33.554688" viewBox="0 0 43.3848 33.5547" fill="none" xmlns="http://www.w3.org/2000/svg" xmlns:xlink="http://www.w3.org/1999/xlink">
	<desc>
			Created with Pixso.
	</desc>
	<defs/>
	<path id="Vector" d="M14.0308 10.8826L0.738281 10.8826C0.330078 10.8826 0 11.1992 0 11.5911L0 15.842C0 16.2339 0.330078 16.5505 0.738281 16.5505L1.47705 16.5505L1.47705 32.8462C1.47705 33.238 1.80713 33.5547 2.21533 33.5547L12.5537 33.5547C12.9624 33.5547 13.2925 33.238 13.2925 32.8462L13.2925 30.0122L13.2925 19.3845L13.2925 16.5505L14.0308 16.5505C14.439 16.5505 14.769 16.2339 14.769 15.842L14.769 11.5911C14.769 11.1992 14.439 10.8826 14.0308 10.8826ZM5.90771 24.344L5.90771 22.927L10.3384 22.927L10.3384 21.51L5.90771 21.51L5.90771 20.093L11.8154 20.093L11.8154 29.3037L5.90771 29.3037L5.90771 25.7612L7.38477 25.7612L7.38477 24.344L5.90771 24.344ZM11.8154 18.676L5.16943 18.676C4.76074 18.676 4.43066 18.9927 4.43066 19.3845L4.43066 30.0122C4.43066 30.4038 4.76074 30.7207 5.16943 30.7207L11.8154 30.7207L11.8154 32.1377L2.95361 32.1377L2.95361 16.5505L11.8154 16.5505L11.8154 18.676ZM13.2925 15.1335L12.5537 15.1335L2.21533 15.1335L1.47705 15.1335L1.47705 12.2996L13.2925 12.2996L13.2925 15.1335Z" fill="#2B7FFF" fill-opacity="1.000000" fill-rule="nonzero"/>
	<path id="Vector" d="M23.8149 11.0154L23.8149 5.83569C23.8149 5.43213 23.4849 5.1062 23.0767 5.1062L22.3379 5.1062L22.3379 1.45898L23.8149 1.45898L23.8149 0L15.6919 0L15.6919 1.45898L20.8613 1.45898L20.8613 5.1062L20.1226 5.1062C19.7144 5.1062 19.3843 5.43213 19.3843 5.83569L19.3843 11.0154C17.7012 11.3545 16.4302 12.8274 16.4302 14.5889L16.4302 16.0479L16.4302 29.9075L16.4302 32.8252C16.4302 33.2285 16.7603 33.5547 17.1689 33.5547L26.0303 33.5547C26.439 33.5547 26.769 33.2285 26.769 32.8252L26.769 29.9075L26.769 16.0479L26.769 14.5889C26.769 12.8281 25.498 11.3545 23.8149 11.0154ZM20.8613 6.56494L22.3379 6.56494L22.3379 10.9417L20.8613 10.9417L20.8613 6.56494ZM20.1226 12.4006L23.0767 12.4006C24.2979 12.4006 25.292 13.3826 25.292 14.5889L25.292 15.3184L17.9072 15.3184L17.9072 14.5889C17.9072 13.3826 18.9014 12.4006 20.1226 12.4006ZM25.292 29.178L17.9072 29.178L17.9072 27.719L20.8613 27.719L20.8613 26.2603L17.9072 26.2603L17.9072 16.7773L25.292 16.7773L25.292 29.178ZM17.9072 32.0957L17.9072 30.637L25.292 30.637L25.292 32.0957L17.9072 32.0957Z" fill="#2B7FFF" fill-opacity="1.000000" fill-rule="nonzero"/>
	<path id="Vector" d="M42.6919 9.97583L30.2305 9.97583C29.8477 9.97583 29.5381 10.2952 29.5381 10.6904L29.5381 32.8403C29.5381 33.2354 29.8477 33.5547 30.2305 33.5547L42.6919 33.5547C43.0747 33.5547 43.3843 33.2354 43.3843 32.8403L43.3843 10.6904C43.3843 10.2952 43.0747 9.97583 42.6919 9.97583ZM41.9995 32.1257L30.9229 32.1257L30.9229 11.4048L41.9995 11.4048L41.9995 32.1257Z" fill="#2B7FFF" fill-opacity="1.000000" fill-rule="nonzero"/>
	<path id="Vector" d="M9.23047 24.4858L11.0767 24.4858L11.0767 25.3928L9.23047 25.3928L9.23047 24.4858Z" fill="#2B7FFF" fill-opacity="1.000000" fill-rule="evenodd"/>
	<path id="Vector" d="M22.1538 26.2996L24 26.2996L24 28.1133L22.1538 28.1133L22.1538 26.2996Z" fill="#2B7FFF" fill-opacity="1.000000" fill-rule="evenodd"/>
	<path id="Vector" d="M21.6924 24.4858C23.4741 24.4858 24.9229 23.0623 24.9229 21.3118C24.9229 19.5613 23.4741 18.1377 21.6924 18.1377C19.9106 18.1377 18.4614 19.5613 18.4614 21.3118C18.4614 23.0623 19.9106 24.4858 21.6924 24.4858ZM21.6924 19.7249C22.583 19.7249 23.3076 20.4365 23.3076 21.3118C23.3076 22.187 22.583 22.8989 21.6924 22.8989C20.8013 22.8989 20.0767 22.187 20.0767 21.3118C20.0767 20.4365 20.8013 19.7249 21.6924 19.7249Z" fill="#2B7FFF" fill-opacity="1.000000" fill-rule="nonzero"/>
	<path id="Vector" d="M34.7305 17.231L38.1924 17.231C39.5283 17.231 40.6152 16.2139 40.6152 14.9636C40.6152 13.7136 39.5283 12.6965 38.1924 12.6965L34.7305 12.6965C33.3945 12.6965 32.3076 13.7136 32.3076 14.9636C32.3076 16.2139 33.3945 17.231 34.7305 17.231ZM39.2305 14.9636C39.2305 15.4995 38.7646 15.9353 38.1924 15.9353L37.1538 15.9353L37.1538 13.9922L38.1924 13.9922C38.7646 13.9922 39.2305 14.428 39.2305 14.9636ZM34.7305 13.9922L35.769 13.9922L35.769 15.9353L34.7305 15.9353C34.1582 15.9353 33.6924 15.4995 33.6924 14.9636C33.6924 14.428 34.1582 13.9922 34.7305 13.9922Z" fill="#2B7FFF" fill-opacity="1.000000" fill-rule="nonzero"/>
	<path id="Vector" d="M34.7305 24.4861L38.1924 24.4861C39.5283 24.4861 40.6152 23.2656 40.6152 21.7654C40.6152 20.2651 39.5283 19.0447 38.1924 19.0447L34.7305 19.0447C33.3945 19.0447 32.3076 20.2651 32.3076 21.7654C32.3076 23.2656 33.3945 24.4861 34.7305 24.4861ZM39.2305 21.7654C39.2305 22.4082 38.7646 22.9314 38.1924 22.9314L37.1538 22.9314L37.1538 20.5994L38.1924 20.5994C38.7646 20.5994 39.2305 21.1226 39.2305 21.7654ZM34.7305 20.5994L35.769 20.5994L35.769 22.9314L34.7305 22.9314C34.1582 22.9314 33.6924 22.4082 33.6924 21.7654C33.6924 21.1226 34.1582 20.5994 34.7305 20.5994Z" fill="#2B7FFF" fill-opacity="1.000000" fill-rule="nonzero"/>
	<path id="Vector" d="M34.7305 30.8342L38.1924 30.8342C39.5283 30.8342 40.6152 29.6138 40.6152 28.1135C40.6152 26.6133 39.5283 25.3928 38.1924 25.3928L34.7305 25.3928C33.3945 25.3928 32.3076 26.6133 32.3076 28.1135C32.3076 29.6138 33.3945 30.8342 34.7305 30.8342ZM39.2305 28.1135C39.2305 28.7563 38.7646 29.2795 38.1924 29.2795L37.1538 29.2795L37.1538 26.9475L38.1924 26.9475C38.7646 26.9475 39.2305 27.4707 39.2305 28.1135ZM34.7305 26.9475L35.769 26.9475L35.769 29.2795L34.7305 29.2795C34.1582 29.2795 33.6924 28.7563 33.6924 28.1135C33.6924 27.4707 34.1582 26.9475 34.7305 26.9475Z" fill="#2B7FFF" fill-opacity="1.000000" fill-rule="nonzero"/>
</svg>
