<svg width="34.939453" height="39.781616" viewBox="0 0 34.9395 39.7816" fill="none" xmlns="http://www.w3.org/2000/svg" xmlns:xlink="http://www.w3.org/1999/xlink">
	<desc>
			Created with Pixso.
	</desc>
	<defs/>
	<path id="Vector" d="M32.7612 29.028L32.5337 28.7444C30.7329 26.4677 29.228 25.2828 27.9365 25.1272C26.8203 24.9749 25.7402 25.7467 24.5923 26.5411L23.3657 27.3076C23.2188 27.3811 23.0732 27.4407 22.937 27.4808C22.2192 27.6838 20.4082 27.8029 19.3828 26.8649C18.189 25.7729 16.3374 23.7744 14.8975 22.028C13.522 20.2201 12.0098 17.9662 11.2207 16.5469C10.5537 15.3446 11.1123 13.6628 11.4849 13.0399C11.5586 12.9174 11.6548 12.7966 11.7612 12.6776L12.8428 11.6783C12.8584 11.6626 12.8657 11.6434 12.8794 11.6294C12.8901 11.6189 12.9077 11.6224 12.9199 11.6136C13.8965 10.7894 14.9062 9.94067 15.0444 8.85034C15.207 7.56934 14.4106 5.83691 12.6064 3.56189L12.3862 3.27844C11.2695 1.84692 9.58105 -0.317871 7.15527 0.0391846C6.20166 0.180908 5.34961 0.506348 4.4707 1.05762C4.46191 1.06287 4.45703 1.07336 4.44971 1.07861C4.44287 1.08386 4.43408 1.08386 4.42725 1.08911L3.2041 1.99561C3.19141 2.00269 3.18457 2.01843 3.17236 2.02893C3.16357 2.0376 3.14941 2.03943 3.13916 2.0481C2.99756 2.16711 2.85547 2.28967 2.71582 2.41565C1.4751 3.52161 -1.21143 6.73291 0.621094 12.6724C1.80371 16.5084 4.24316 20.9849 7.69287 25.6434L7.65918 25.6714L9.56152 28.0409L9.57715 28.0287C13.3169 32.4526 17.1235 35.8722 20.6113 37.9424C22.9385 39.325 24.9722 39.7816 26.645 39.7816C28.8467 39.7816 30.4233 38.9906 31.2144 38.4762L31.7114 38.1437C31.7676 38.1051 31.8076 38.0509 31.8477 38.002L32.9312 37.1864C32.9434 37.1759 32.9502 37.1619 32.9624 37.1514C32.9678 37.1461 32.9766 37.1479 32.9834 37.1427C33.7534 36.4391 34.2876 35.7024 34.6582 34.8291C35.6191 32.5909 33.8989 30.4471 32.7612 29.028ZM33.3721 34.2797C33.0835 34.9586 32.6616 35.5361 32.0527 36.0962L30.4409 37.3088C28.9814 38.2574 25.8613 39.4299 21.3286 36.7384C17.8408 34.6681 14.0015 31.1681 10.2231 26.6165L9.20117 25.325C5.64355 20.6069 3.14111 16.0884 1.95947 12.2594C0.424805 7.28064 2.3584 4.61011 3.65381 3.45691C3.78467 3.33789 3.91602 3.22766 4.04541 3.11743L4.05078 3.11218L5.2251 2.24243C5.93896 1.79089 6.60059 1.53894 7.36182 1.42334C8.98779 1.17834 10.3105 2.89343 11.2817 4.1394L11.5093 4.4281C13.5254 6.97095 13.7197 8.18018 13.6567 8.67371C13.5864 9.22144 12.7534 9.9231 12.0186 10.5409L11.9155 10.6284C11.9121 10.6318 11.9102 10.6372 11.9067 10.6406C11.9014 10.6442 11.896 10.6459 11.8911 10.6494L10.7725 11.6836C10.7656 11.6907 10.7622 11.6993 10.7554 11.7081C10.748 11.7169 10.7344 11.7203 10.7271 11.7291C10.5537 11.9233 10.4053 12.1177 10.2842 12.3188C9.65625 13.3706 9.06299 15.5442 9.99902 17.226C10.8164 18.6959 12.3721 21.0182 13.8018 22.8942C15.2964 24.7072 17.2021 26.7651 18.4375 27.8939C19.3633 28.7391 20.6514 29.0227 21.7661 29.0227C22.3628 29.0227 22.9106 28.9404 23.3252 28.8231C23.5439 28.7601 23.77 28.6692 24.0024 28.5554C24.0166 28.5483 24.0234 28.5361 24.0376 28.5273C24.0444 28.5239 24.0552 28.5256 24.062 28.5204L25.3608 27.7084C25.4028 27.6804 25.4307 27.6437 25.4658 27.6086L25.4814 27.6261C26.2812 27.0714 27.1929 26.4204 27.7632 26.5149C28.269 26.5762 29.417 27.0626 31.4365 29.6124L31.6694 29.9047C32.6528 31.1313 34.0005 32.8114 33.3721 34.2797Z" fill="#FFFFFF" fill-opacity="1.000000" fill-rule="nonzero"/>
</svg>
