<svg width="26.620117" height="30.310059" viewBox="0 0 26.6201 30.3101" fill="none" xmlns="http://www.w3.org/2000/svg" xmlns:xlink="http://www.w3.org/1999/xlink">
	<desc>
			Created with Pixso.
	</desc>
	<defs/>
	<path id="Vector" d="M24.9609 22.1167L24.7876 21.9004C23.4155 20.166 22.269 19.2632 21.2852 19.1445C20.4346 19.0283 19.6118 19.6167 18.7368 20.2217L17.8022 20.8057C17.6904 20.8618 17.5796 20.9072 17.4756 20.938C16.9292 21.0923 15.5488 21.1831 14.7676 20.4683C13.8584 19.6367 12.4478 18.1138 11.3506 16.7832C10.3022 15.4058 9.15039 13.6885 8.54883 12.6069C8.04102 11.6909 8.46631 10.4097 8.75049 9.93506C8.80615 9.8418 8.87988 9.75 8.96094 9.65918L9.78516 8.89795C9.79688 8.88574 9.80225 8.87109 9.81299 8.86035C9.82129 8.85254 9.83447 8.85498 9.84375 8.84863C10.5879 8.2207 11.3569 7.57373 11.4624 6.74316C11.5864 5.76709 10.9795 4.44727 9.60498 2.71387L9.43701 2.49805C8.58643 1.40723 7.2998 -0.242188 5.45166 0.0297852C4.7251 0.137695 4.07568 0.385742 3.40625 0.805664C3.3999 0.810059 3.39551 0.817871 3.39062 0.821777C3.38525 0.825684 3.37842 0.825684 3.37305 0.82959L2.44092 1.52051C2.43164 1.52588 2.42627 1.5376 2.41699 1.5459C2.41016 1.55273 2.3999 1.55371 2.3916 1.56055C2.28369 1.65137 2.17578 1.74463 2.06885 1.84033C1.12354 2.68311 -0.922852 5.12988 0.473145 9.65527C1.37451 12.5776 3.23291 15.9883 5.86084 19.5376L5.83594 19.5591L7.28516 21.3643L7.29688 21.355C10.1465 24.7256 13.0464 27.3311 15.7036 28.9087C17.4771 29.9619 19.0264 30.3101 20.3013 30.3101C21.9785 30.3101 23.1797 29.707 23.7822 29.3149L24.1611 29.062C24.2036 29.0327 24.2344 28.9912 24.2651 28.9536L25.0903 28.3325C25.0996 28.3247 25.105 28.314 25.1143 28.3057C25.1182 28.3018 25.125 28.3032 25.1304 28.2993C25.7173 27.7632 26.1235 27.2017 26.4062 26.5366C27.1382 24.8311 25.8276 23.1978 24.9609 22.1167ZM25.4263 26.1177C25.2065 26.6353 24.8853 27.0752 24.4209 27.502L23.1929 28.4258C22.0811 29.1484 19.7036 30.042 16.2505 27.9912C13.5933 26.4141 10.6675 23.7471 7.78906 20.2793L7.01025 19.2949C4.2998 15.7007 2.39307 12.2578 1.49316 9.34033C0.32373 5.54736 1.79688 3.5127 2.78369 2.63379C2.88379 2.54297 2.98389 2.45898 3.08252 2.375L3.08643 2.37109L3.98096 1.7085C4.5249 1.36426 5.0293 1.17236 5.60889 1.08447C6.84766 0.897949 7.85596 2.20459 8.5957 3.15381L8.76904 3.37402C10.3052 5.31104 10.4531 6.23242 10.4053 6.6084C10.3516 7.02588 9.71729 7.56055 9.15723 8.03125L9.07861 8.09766C9.07568 8.10059 9.07422 8.10449 9.07178 8.10693C9.06787 8.10986 9.06348 8.11133 9.05957 8.11377L8.20752 8.90186C8.20215 8.90723 8.19971 8.91406 8.19434 8.92041C8.18896 8.92725 8.17822 8.92969 8.17285 8.93652C8.04102 9.08447 7.92773 9.23242 7.83594 9.38574C7.35693 10.187 6.90527 11.8433 7.61816 13.1245C8.24121 14.2446 9.42627 16.0137 10.5156 17.4434C11.6543 18.8247 13.1064 20.3926 14.0479 21.2524C14.7529 21.8965 15.7344 22.1123 16.5835 22.1123C17.0386 22.1123 17.4556 22.0498 17.7715 21.9604C17.9385 21.9126 18.1104 21.8433 18.2876 21.7563C18.2983 21.751 18.3037 21.7417 18.3145 21.7354C18.3198 21.7324 18.3276 21.7339 18.333 21.73L19.3223 21.1113C19.3545 21.0898 19.3755 21.062 19.4023 21.0352L19.4146 21.0483C20.0239 20.626 20.7183 20.1299 21.1528 20.2017C21.5386 20.2485 22.4131 20.6191 23.9517 22.562L24.1289 22.7847C24.8784 23.7192 25.9053 24.999 25.4263 26.1177Z" fill="#011C44" fill-opacity="1.000000" fill-rule="nonzero"/>
</svg>
