<svg width="42.955566" height="35.833740" viewBox="0 0 42.9556 35.8337" fill="none" xmlns="http://www.w3.org/2000/svg" xmlns:xlink="http://www.w3.org/1999/xlink">
	<desc>
			Created with Pixso.
	</desc>
	<defs/>
	<path id="Vector" d="M42.0156 8.38184C41.6362 8.03809 41.1777 7.81738 40.6904 7.74463C40.2036 7.67163 39.708 7.74951 39.2593 7.96924L29.7905 12.5894C29.7485 12.6143 29.7026 12.6299 29.6558 12.6353C29.6084 12.6404 29.5605 12.6353 29.5151 12.6199C29.4697 12.6045 29.4277 12.5791 29.3911 12.5457C29.3545 12.512 29.3247 12.4707 29.3027 12.4243L23.7715 1.49292C23.5474 1.04126 23.2168 0.664062 22.814 0.401367C22.4116 0.138672 21.9521 0 21.4844 0C21.0161 0 20.5566 0.138672 20.1543 0.401367C19.752 0.664062 19.4209 1.04126 19.1968 1.49292L13.6655 12.4243C13.6436 12.4707 13.6138 12.512 13.5771 12.5457C13.541 12.5791 13.4985 12.6045 13.4531 12.6199C13.4077 12.6353 13.3604 12.6404 13.313 12.6353C13.2656 12.6299 13.2197 12.6143 13.1777 12.5894L3.70898 7.96924C3.26172 7.74609 2.7666 7.66553 2.27979 7.73657C1.79297 7.80762 1.33398 8.02759 0.95459 8.37134C0.575684 8.71509 0.291992 9.16895 0.13623 9.68115C-0.0200195 10.1936 -0.0424805 10.7437 0.0717773 11.2693L4.85303 33.6062C4.93408 33.9836 5.0835 34.3391 5.29297 34.6511C5.50244 34.9631 5.76758 35.2251 6.07178 35.4211C6.47266 35.6909 6.93311 35.8337 7.40283 35.8337C7.64355 35.8313 7.88281 35.7966 8.11523 35.7305C16.8569 33.0706 26.0894 33.0632 34.834 35.71C35.1753 35.8181 35.5327 35.8494 35.8853 35.8013C36.2373 35.7532 36.5771 35.627 36.8843 35.4304C37.1909 35.2336 37.458 34.9707 37.6699 34.657C37.8813 34.3435 38.0332 33.9861 38.1152 33.6062L42.8779 11.2693C42.9971 10.7476 42.979 10.1992 42.8267 9.68823C42.6738 9.17725 42.3926 8.72412 42.0156 8.38184ZM40.7031 10.6919L35.9219 33.0286C35.896 33.1372 35.8364 33.2322 35.7529 33.2969C35.6597 33.3467 35.5542 33.3611 35.4531 33.3381C26.3115 30.5603 16.6567 30.5603 7.51562 33.3381C7.46631 33.3533 7.41455 33.3574 7.36377 33.3501C7.31299 33.3425 7.26416 33.324 7.22021 33.2949C7.17627 33.2659 7.13818 33.2273 7.1084 33.1816C7.07861 33.1357 7.05762 33.0837 7.04688 33.0286L2.26562 10.6919C2.25439 10.6301 2.25586 10.5667 2.26953 10.5056C2.2832 10.4446 2.30859 10.3877 2.34473 10.3386C2.38037 10.2896 2.42529 10.2495 2.47607 10.2214C2.52734 10.1934 2.5835 10.178 2.64062 10.1763L2.79053 10.2173L12.2778 14.8579C12.8765 15.1543 13.5542 15.1917 14.1763 14.9622C14.7983 14.7329 15.3193 14.2537 15.6343 13.6206L21.1655 2.68921C21.1948 2.62402 21.2407 2.56934 21.2969 2.53101C21.353 2.49268 21.418 2.47241 21.4844 2.47241C21.5503 2.47241 21.6152 2.49268 21.6714 2.53101C21.728 2.56934 21.7734 2.62402 21.8027 2.68921L27.334 13.6206C27.6494 14.2537 28.1699 14.7329 28.792 14.9622C29.4141 15.1917 30.0923 15.1543 30.6904 14.8579L40.1777 10.2173C40.2422 10.186 40.3135 10.1753 40.3828 10.1863C40.4526 10.197 40.5181 10.2295 40.5718 10.2793C40.6265 10.3276 40.668 10.3918 40.6909 10.4648C40.7144 10.5378 40.7183 10.6165 40.7031 10.6919ZM28.6094 26.3667C28.5771 26.6714 28.4453 26.9526 28.2383 27.1577C28.0308 27.3628 27.7627 27.4775 27.4844 27.4805L27.3716 27.4805C23.4565 27.0474 19.5117 27.0474 15.5967 27.4805C15.3008 27.5154 15.0049 27.4197 14.7729 27.2148C14.541 27.01 14.3921 26.7126 14.3594 26.3875C14.333 26.0601 14.4243 25.7341 14.6133 25.4797C14.8027 25.2253 15.0747 25.0625 15.3716 25.0261C19.4351 24.5518 23.5332 24.5518 27.5967 25.0261C27.8901 25.0625 28.1597 25.2224 28.3481 25.4724C28.5371 25.7222 28.6304 26.0427 28.6094 26.3667Z" fill="#2B7FFF" fill-opacity="1.000000" fill-rule="nonzero"/>
</svg>
